<svg width="772" height="551" viewBox="0 0 772 551" fill="none" xmlns="http://www.w3.org/2000/svg">
<mask id="mask0_90_19" style="mask-type:alpha" maskUnits="userSpaceOnUse" x="0" y="0" width="772" height="551">
<rect y="0.69574" width="772" height="550.013" fill="#D9D9D9"/>
</mask>
<g mask="url(#mask0_90_19)">
<path d="M722.068 -167.204C661.631 -186.22 572.198 -113.005 543.597 -35.17C514.996 42.6651 604.205 155.905 693.215 169.484C782.226 183.063 862.119 157.623 845.261 35.4798C828.403 -86.6631 782.506 -148.188 722.068 -167.204Z" fill="#464F66"/>
<path d="M491.585 275.717C429.592 288.8 387.585 396.475 400.851 478.331C414.118 560.186 547.41 615.091 631.634 583.251C715.857 551.412 772.991 490.046 698.374 391.886C623.757 293.726 553.578 262.634 491.585 275.717Z" fill="#464F66"/>
<path d="M-10.3199 434.87C-60.6234 473.391 -52.128 588.657 -4.8817 656.805C42.3646 724.953 186.306 717.056 248.586 652.03C310.867 587.004 335.979 507.007 226.345 450.584C116.711 394.162 39.9836 396.349 -10.3199 434.87Z" fill="#464F66"/>
<path d="M42.8823 184.623C51.0309 247.455 155.055 297.83 237.702 291.066C320.349 284.302 385.603 155.759 360.512 69.2852C335.42 -17.1885 278.754 -78.9882 175.011 -12.352C71.2676 54.2841 34.7337 121.79 42.8823 184.623Z" fill="#464F66"/>
</g>
</svg>
